# xmcd
#
# Track frame offsets:
# 150
# 21034
# 39880
# 56095
# 76205
# 122355
#
# Disc length: 2712 seconds
#
# Revision: 1
# Processed by: cddbd v1.5.2PL0 Copyright (c) Steve Scherf et al.
# Submitted via: CedeCatalogueitor 2.6.0.6 http://personales.ya.com/cdcatalogueitor
#
DISCID=3a0a9606
DTITLE=Klaus&Kinski - Por Que No Me Das Tu Dinero
DYEAR=1900
DGENRE=
TTITLE0=Nunca Estas A La Altura
TTITLE1=Por Que No Me Das Tu Dinero
TTITLE2=Te Vas A Enterar
TTITLE3=Shell For The Mourning
TTITLE4=El Mejor Idilio
TTITLE5=
EXTD=
EXTT0=
EXTT1=
EXTT2=
EXTT3=
EXTT4=
EXTT5=
PLAYORDER=
